<svg width="30" height="30" viewBox="0 0 30 30" fill="none" xmlns="http://www.w3.org/2000/svg">
<path d="M19.695 18.1325L19.1262 18.6988C19.1262 18.6988 17.7725 20.0438 14.0787 16.3713C10.385 12.6988 11.7387 11.3538 11.7387 11.3538L12.0962 10.9963C12.98 10.1188 13.0637 8.70876 12.2925 7.67876L10.7175 5.575C9.76247 4.3 7.91872 4.13126 6.82497 5.21876L4.86247 7.16876C4.32122 7.70876 3.95872 8.40625 4.00247 9.18125C4.11497 11.165 5.01247 15.4313 10.0175 20.4088C15.3262 25.6863 20.3075 25.8963 22.3437 25.7063C22.9887 25.6463 23.5487 25.3188 24 24.8688L25.775 23.1038C26.975 21.9125 26.6375 19.8688 25.1025 19.035L22.715 17.7363C21.7075 17.19 20.4825 17.35 19.695 18.1325Z" fill="black"/>
</svg>
