<svg width="7" height="13" viewBox="0 0 7 13" fill="none" xmlns="http://www.w3.org/2000/svg">
<path fill-rule="evenodd" clip-rule="evenodd" d="M0.219893 0.151164C0.346755 0.0426683 0.511503 -0.0110232 0.677932 0.00188807C0.844362 0.0147993 0.998857 0.0932573 1.10747 0.220021L6.14574 6.098C6.24353 6.21214 6.29729 6.35748 6.29729 6.50778C6.29729 6.65808 6.24353 6.80343 6.14574 6.91756L1.10747 12.7955C0.99706 12.9161 0.844094 12.989 0.680908 12.9989C0.517722 13.0087 0.357105 12.9547 0.23301 12.8483C0.108916 12.7418 0.0310702 12.5913 0.0159294 12.4285C0.000788626 12.2658 0.0495394 12.1035 0.151876 11.976L4.83831 6.50778L0.151876 1.03958C0.0431804 0.912929 -0.0107983 0.748313 0.0017975 0.581891C0.0143933 0.415469 0.0925335 0.260852 0.219053 0.152004" fill="black"/>
</svg>
