<svg width="25" height="23" viewBox="0 0 25 23" fill="none" xmlns="http://www.w3.org/2000/svg">
<path d="M11.5623 1.26518V12.5427C11.5623 12.9553 11.3622 13.3304 11.0246 13.5679L2.01012 19.8819C1.27245 20.3945 0.222216 19.9944 0.05968 19.1067C-0.127862 18.0314 0.122194 16.7687 0.872363 15.4059L4.77324 8.39178L8.44906 1.77779C8.73663 1.26518 9.0492 0.815078 9.37427 0.427491C10.1244 -0.447705 11.5623 0.114921 11.5623 1.26518Z" fill="white"/>
<path d="M22.9899 19.8819L13.9753 13.5679C13.6378 13.3304 13.4377 12.9553 13.4377 12.5427V1.26518C13.4377 0.114921 14.8755 -0.447705 15.6257 0.427491C15.9508 0.815078 16.2633 1.26518 16.5509 1.77779L20.2267 8.39178L24.1276 15.4059C24.8778 16.7687 25.1278 18.0314 24.9403 19.1067C24.7778 19.9944 23.7275 20.3945 22.9899 19.8819Z" fill="white"/>
<path d="M4.07309 20.3195L11.7623 15.1933C12.1749 14.9182 12.8501 14.9182 13.2627 15.1933L20.9519 20.3195C22.9898 21.6823 22.6523 22.795 20.2017 22.795H4.81075C2.37271 22.7825 2.03513 21.6698 4.07309 20.3195Z" fill="white"/>
</svg>
